HIERARCHY
ROOT Hips
{
	OFFSET 0.000000 121.760803 0.000000
	CHANNELS 6 Xposition Yposition Zposition Xrotation Yrotation Zrotation 
	JOINT Spine
	{
		OFFSET 0.072000 7.257294 -0.789700
		CHANNELS 3 Xrotation Yrotation Zrotation
		JOINT Spine1
		{
			OFFSET 0.000000 12.508769 -0.658067
			CHANNELS 3 Xrotation Yrotation Zrotation
			JOINT Spine1_split
			{
				OFFSET 0.000000 12.508769 -0.658067
				CHANNELS 3 Xrotation Yrotation Zrotation
				JOINT Spine2
				{
					OFFSET 0.000000 12.508769 -0.658067
					CHANNELS 3 Xrotation Yrotation Zrotation
					JOINT Neck
					{
						OFFSET 0.000000 14.033295 7.520400
						CHANNELS 3 Xrotation Yrotation Zrotation
						JOINT Head
						{
							OFFSET 0.000000 8.198502 5.703100
							CHANNELS 3 Xrotation Yrotation Zrotation
							JOINT HeadTop_End
							{
								OFFSET 0.000000 17.760803 13.332701
								CHANNELS 3 Xrotation Yrotation Zrotation
								End Site
								{
									OFFSET 0.000000 0.000000 0.000000
								}
							}
						}
					}
					JOINT LeftShoulder
					{
						OFFSET 6.292450 5.785301 -0.669000
						CHANNELS 3 Xrotation Yrotation Zrotation
						JOINT LeftShoulder_split
						{
							OFFSET 6.292450 5.785301 -0.669000
							CHANNELS 3 Xrotation Yrotation Zrotation
							JOINT LeftArm
							{
								OFFSET 13.907140 -6.093903 1.965100
								CHANNELS 3 Xrotation Yrotation Zrotation
								JOINT LeftForeArm
								{
									OFFSET 34.140198 0.000000 0.000000
									CHANNELS 3 Xrotation Yrotation Zrotation
									JOINT LeftHand
									{
										OFFSET 40.960209 0.000000 0.000000
										CHANNELS 3 Xrotation Yrotation Zrotation
										JOINT LeftHandThumb1
										{
											OFFSET 10.006996 -7.170425 9.573125
											CHANNELS 3 Xrotation Yrotation Zrotation
											JOINT LeftHandThumb2
											{
												OFFSET 1.835007 -1.059448 1.059443
												CHANNELS 3 Xrotation Yrotation Zrotation
												JOINT LeftHandThumb3
												{
													OFFSET 2.112267 -1.219513 1.219518
													CHANNELS 3 Xrotation Yrotation Zrotation
													JOINT LeftHandThumb4
													{
														OFFSET 4.843811 -2.796570 2.796576
														CHANNELS 3 Xrotation Yrotation Zrotation
														End Site
														{
															OFFSET 0.000000 0.000000 0.000000
														}
													}
												}
											}
										}
										JOINT LeftHandIndex1
										{
											OFFSET 18.389847 -0.922348 4.596882
											CHANNELS 3 Xrotation Yrotation Zrotation
											JOINT LeftHandIndex2
											{
												OFFSET 4.711273 0.000000 0.000000
												CHANNELS 3 Xrotation Yrotation Zrotation
												JOINT LeftHandIndex3
												{
													OFFSET 2.886131 0.000000 0.000000
													CHANNELS 3 Xrotation Yrotation Zrotation
													JOINT LeftHandIndex4
													{
														OFFSET 6.145912 0.000000 0.000000
														CHANNELS 3 Xrotation Yrotation Zrotation
														End Site
														{
															OFFSET 0.000000 0.000000 0.000000
														}
													}
												}
											}
										}
										JOINT LeftHandMiddle1
										{
											OFFSET 18.013008 0.000000 0.000000
											CHANNELS 3 Xrotation Yrotation Zrotation
											JOINT LeftHandMiddle2
											{
												OFFSET 4.946693 0.000000 0.000000
												CHANNELS 3 Xrotation Yrotation Zrotation
												JOINT LeftHandMiddle3
												{
													OFFSET 3.342232 0.000000 0.000000
													CHANNELS 3 Xrotation Yrotation Zrotation
													JOINT LeftHandMiddle4
													{
														OFFSET 4.461754 0.000000 0.000000
														CHANNELS 3 Xrotation Yrotation Zrotation
														End Site
														{
															OFFSET 0.000000 0.000000 0.000000
														}
													}
												}
											}
										}
										JOINT LeftHandRing1
										{
											OFFSET 15.849892 -0.102921 -4.126150
											CHANNELS 3 Xrotation Yrotation Zrotation
											JOINT LeftHandRing2
											{
												OFFSET 3.527054 0.000000 0.000000
												CHANNELS 3 Xrotation Yrotation Zrotation
												JOINT LeftHandRing3
												{
													OFFSET 2.961098 0.000000 0.000000
													CHANNELS 3 Xrotation Yrotation Zrotation
													JOINT LeftHandRing4
													{
														OFFSET 4.927200 0.000000 0.000000
														CHANNELS 3 Xrotation Yrotation Zrotation
														End Site
														{
															OFFSET 0.000000 0.000000 0.000000
														}
													}
												}
											}
										}
										JOINT LeftHandPinky1
										{
											OFFSET 12.791824 -0.832031 -6.799156
											CHANNELS 3 Xrotation Yrotation Zrotation
											JOINT LeftHandPinky2
											{
												OFFSET 3.327133 0.000000 0.000000
												CHANNELS 3 Xrotation Yrotation Zrotation
												JOINT LeftHandPinky3
												{
													OFFSET 3.014900 0.000000 0.000000
													CHANNELS 3 Xrotation Yrotation Zrotation
													JOINT LeftHandPinky4
													{
														OFFSET 5.847786 0.000000 0.000000
														CHANNELS 3 Xrotation Yrotation Zrotation
														End Site
														{
															OFFSET 0.000000 0.000000 0.000000
														}
													}
												}
											}
										}
									}
								}
							}
						}
					}
					JOINT RightShoulder
					{
						OFFSET -6.292450 5.785301 -0.669000
						CHANNELS 3 Xrotation Yrotation Zrotation
						JOINT RightShoulder_split
						{
							OFFSET -6.292450 5.785301 -0.669000
							CHANNELS 3 Xrotation Yrotation Zrotation
							JOINT RightArm
							{
								OFFSET -13.907140 -6.093903 1.965100
								CHANNELS 3 Xrotation Yrotation Zrotation
								JOINT RightForeArm
								{
									OFFSET -34.140198 0.000000 0.000000
									CHANNELS 3 Xrotation Yrotation Zrotation
									JOINT RightHand
									{
										OFFSET -40.960209 0.000000 0.000000
										CHANNELS 3 Xrotation Yrotation Zrotation
										JOINT RightHandThumb1
										{
											OFFSET -10.007050 -7.170456 9.573117
											CHANNELS 3 Xrotation Yrotation Zrotation
											JOINT RightHandThumb2
											{
												OFFSET -1.835007 -1.059448 1.059443
												CHANNELS 3 Xrotation Yrotation Zrotation
												JOINT RightHandThumb3
												{
													OFFSET -2.112267 -1.219513 1.219518
													CHANNELS 3 Xrotation Yrotation Zrotation
													JOINT RightHandThumb4
													{
														OFFSET -4.843834 -2.796585 2.796590
														CHANNELS 3 Xrotation Yrotation Zrotation
														End Site
														{
															OFFSET 0.000000 0.000000 0.000000
														}
													}
												}
											}
										}
										JOINT RightHandIndex1
										{
											OFFSET -18.389870 -0.922424 4.596786
											CHANNELS 3 Xrotation Yrotation Zrotation
											JOINT RightHandIndex2
											{
												OFFSET -4.711273 0.000000 0.000000
												CHANNELS 3 Xrotation Yrotation Zrotation
												JOINT RightHandIndex3
												{
													OFFSET -2.886131 0.000000 0.000000
													CHANNELS 3 Xrotation Yrotation Zrotation
													JOINT RightHandIndex4
													{
														OFFSET -6.145920 0.000000 0.000000
														CHANNELS 3 Xrotation Yrotation Zrotation
														End Site
														{
															OFFSET 0.000000 0.000000 0.000000
														}
													}
												}
											}
										}
										JOINT RightHandMiddle1
										{
											OFFSET -18.013008 0.000000 0.000000
											CHANNELS 3 Xrotation Yrotation Zrotation
											JOINT RightHandMiddle2
											{
												OFFSET -4.946693 0.000000 0.000000
												CHANNELS 3 Xrotation Yrotation Zrotation
												JOINT RightHandMiddle3
												{
													OFFSET -3.342232 0.000000 0.000000
													CHANNELS 3 Xrotation Yrotation Zrotation
													JOINT RightHandMiddle4
													{
														OFFSET -4.461754 0.000000 0.000000
														CHANNELS 3 Xrotation Yrotation Zrotation
														End Site
														{
															OFFSET 0.000000 0.000000 0.000000
														}
													}
												}
											}
										}
										JOINT RightHandRing1
										{
											OFFSET -15.849876 -0.102936 -4.126237
											CHANNELS 3 Xrotation Yrotation Zrotation
											JOINT RightHandRing2
											{
												OFFSET -3.527054 0.000000 0.000000
												CHANNELS 3 Xrotation Yrotation Zrotation
												JOINT RightHandRing3
												{
													OFFSET -2.961098 0.000000 0.000000
													CHANNELS 3 Xrotation Yrotation Zrotation
													JOINT RightHandRing4
													{
														OFFSET -4.927200 0.000000 0.000000
														CHANNELS 3 Xrotation Yrotation Zrotation
														End Site
														{
															OFFSET 0.000000 0.000000 0.000000
														}
													}
												}
											}
										}
										JOINT RightHandPinky1
										{
											OFFSET -12.791786 -0.832077 -6.799222
											CHANNELS 3 Xrotation Yrotation Zrotation
											JOINT RightHandPinky2
											{
												OFFSET -3.327133 0.000000 0.000000
												CHANNELS 3 Xrotation Yrotation Zrotation
												JOINT RightHandPinky3
												{
													OFFSET -3.014900 0.000000 0.000000
													CHANNELS 3 Xrotation Yrotation Zrotation
													JOINT RightHandPinky4
													{
														OFFSET -5.847786 0.000000 0.000000
														CHANNELS 3 Xrotation Yrotation Zrotation
														End Site
														{
															OFFSET 0.000000 0.000000 0.000000
														}
													}
												}
											}
										}
									}
								}
							}
						}
					}
				}
			}
		}
	}
	JOINT LeftUpLeg
	{
		OFFSET 13.026900 -6.336304 -1.092800
		CHANNELS 3 Xrotation Yrotation Zrotation
		JOINT LeftLeg
		{
			OFFSET 0.524474 -46.096886 9.782700
			CHANNELS 3 Xrotation Yrotation Zrotation
			JOINT LeftFoot
			{
				OFFSET -0.524474 -53.427422 -12.948200
				CHANNELS 3 Xrotation Yrotation Zrotation
				JOINT LeftToeBase
				{
					OFFSET 0.192200 -14.009700 16.364100
					CHANNELS 3 Xrotation Yrotation Zrotation
					JOINT LeftToe_End
					{
						OFFSET -1.784700 -0.561700 9.474800
						CHANNELS 3 Xrotation Yrotation Zrotation
						End Site
						{
							OFFSET 0.000000 0.000000 0.000000
						}
					}
				}
			}
		}
	}
	JOINT RightUpLeg
	{
		OFFSET -12.883000 -6.336304 -1.092800
		CHANNELS 3 Xrotation Yrotation Zrotation
		JOINT RightLeg
		{
			OFFSET -0.524587 -46.096825 9.782800
			CHANNELS 3 Xrotation Yrotation Zrotation
			JOINT RightFoot
			{
				OFFSET 0.524587 -53.427383 -12.948300
				CHANNELS 3 Xrotation Yrotation Zrotation
				JOINT RightToeBase
				{
					OFFSET -0.192200 -14.009700 16.364100
					CHANNELS 3 Xrotation Yrotation Zrotation
					JOINT RightToe_End
					{
						OFFSET 1.784700 -0.561700 9.474800
						CHANNELS 3 Xrotation Yrotation Zrotation
						End Site
						{
							OFFSET 0.000000 0.000000 0.000000
						}
					}
				}
			}
		}
	}
}
MOTION
Frames: 4
Frame Time: 0.016667
29.796827 106.208885 6.559832 154.012105 -64.123182 160.219845 10.347571 -3.119569 1.694733 5.441876 -1.990662 -3.512889 0.000000 0.000000 0.000000 -3.218469 -5.241829 -2.484903 6.043333 13.386880 -0.965031 -12.384985 14.668041 -5.260455 0.000001 0.000000 -0.000000 -1.837985 -14.467488 -4.296793 0.000000 0.000000 0.000000 -24.431874 -9.271216 -47.099229 -14.226254 -27.309270 -17.570313 3.474889 -7.760236 6.842556 20.212982 -4.649840 10.411180 3.371819 17.053176 -9.307531 9.278261 14.738795 -1.340746 -0.000000 0.000001 -0.000001 -0.754223 0.208565 -13.245153 0.030471 -0.759506 -17.420387 -0.102857 -1.044115 -20.385634 -0.000001 -0.000001 -0.000000 2.446923 2.844463 -23.035252 -0.021032 -2.027862 -31.425168 0.012566 -2.399558 -34.994355 -0.000001 -0.000000 -0.000001 0.752460 4.505536 -30.750239 -0.981906 -1.227421 -35.970939 -1.038281 -1.357717 -39.134713 -0.000001 -0.000001 0.000001 -1.632806 3.694658 -37.232731 -0.950059 -0.779038 -32.064566 -2.238896 -0.225174 -50.000267 0.000001 0.000002 -0.000000 -5.499253 24.268046 2.019078 0.000000 0.000000 0.000000 -13.675005 -20.288508 57.835160 13.715976 34.549412 -4.170661 13.832398 22.666579 12.809453 55.149570 18.649534 -29.698294 -0.442562 -14.180557 7.313162 21.666977 -29.244500 9.142361 0.000003 -0.000000 -0.000001 5.673409 7.585001 36.844171 1.050423 3.824535 68.900264 0.499593 3.026031 62.196454 -0.000002 0.000001 0.000002 -0.125706 1.886100 45.000776 -1.169026 3.204653 68.417663 -0.936436 1.813614 41.107555 -0.000001 0.000001 0.000001 -5.312012 1.216654 58.508794 -0.745223 1.667561 48.011281 -0.816486 1.840594 53.666552 0.000001 0.000001 -0.000000 -7.756800 -9.376460 47.263994 -0.526057 1.541606 45.600529 -0.508178 0.803477 24.986618 0.000002 0.000001 -0.000000 -59.899051 42.823425 55.017170 35.737773 -11.181873 -4.662997 9.237637 7.611681 -0.166371 -0.495556 11.592369 -9.275469 0.000000 0.000001 0.000001 -43.944775 -13.519882 -29.061499 41.276746 -5.467066 5.111836 -7.819129 -2.962751 9.626670 0.624353 3.639653 0.391546 -0.000000 -0.000000 0.000000 
29.836868 106.108742 5.817343 154.702214 -62.751912 161.045137 10.456164 -3.120715 1.644785 5.299429 -1.863429 -3.688208 0.000000 0.000000 0.000000 -3.740330 -4.710125 -2.529082 6.087832 13.825683 -1.303473 -12.333073 14.943274 -5.101975 -0.000001 0.000000 -0.000000 -1.833830 -14.445314 -4.259440 0.000000 0.000000 0.000000 -24.484056 -9.447718 -47.266760 -14.703155 -28.284795 -17.623242 3.654404 -8.621937 6.264436 20.213245 -4.649927 10.411324 3.371643 17.053302 -9.307580 9.278327 14.738746 -1.340768 -0.000001 -0.000001 0.000000 -0.754228 0.208563 -13.245175 0.030195 -0.759581 -17.420345 -0.102885 -1.044193 -20.385666 -0.000002 -0.000000 -0.000000 2.446881 2.844494 -23.035262 -0.021116 -2.027789 -31.425185 0.012648 -2.399467 -34.994324 -0.000001 0.000001 -0.000002 0.752460 4.505422 -30.750253 -0.981755 -1.227660 -35.970939 -1.038112 -1.358012 -39.134706 0.000002 0.000000 0.000000 -1.632800 3.694691 -37.232734 -0.949861 -0.779170 -32.064593 -2.238987 -0.224991 -50.000287 -0.000002 0.000000 -0.000002 -5.518096 24.192597 2.050979 0.000000 0.000000 0.000000 -13.471642 -20.142013 57.616621 14.645621 34.292508 -4.668573 13.381620 22.766245 12.759869 55.149570 18.649529 -29.698291 -0.442562 -14.180555 7.313159 21.666979 -29.244500 9.142367 0.000001 -0.000003 0.000000 5.673410 7.585001 36.844168 1.050424 3.824532 68.900271 0.499590 3.026032 62.196454 0.000003 -0.000002 -0.000003 -0.125702 1.886102 45.000776 -1.169026 3.204655 68.417663 -0.936436 1.813616 41.107552 -0.000002 0.000000 0.000004 -5.312011 1.216659 58.508801 -0.745226 1.667558 48.011278 -0.816486 1.840597 53.666555 0.000000 0.000002 -0.000001 -7.756802 -9.376460 47.263997 -0.526059 1.541605 45.600525 -0.508178 0.803478 24.986618 0.000000 -0.000001 0.000000 -61.364592 42.329230 56.165851 36.018231 -12.993141 -4.411219 10.667264 6.868196 1.561248 -0.203517 12.587400 -10.666441 0.000001 0.000003 -0.000000 -44.468391 -13.292780 -28.400466 41.704643 -5.121157 5.202132 -8.346325 -2.403372 8.988834 0.957912 3.691112 0.220891 -0.000000 0.000002 -0.000000 
29.836716 106.009384 5.086010 155.328146 -61.449313 161.840048 10.514735 -3.111317 1.570060 5.170760 -1.727739 -3.885305 0.000000 0.000000 0.000000 -4.258840 -4.169632 -2.589057 6.369388 14.108998 -1.231395 -12.373164 15.396894 -5.297322 0.000001 0.000000 -0.000000 -1.831041 -14.578224 -4.183432 0.000000 0.000000 0.000000 -24.473712 -9.331597 -47.461181 -15.137507 -29.354879 -17.695159 3.798892 -9.351018 5.643266 20.213492 -4.650046 10.411481 3.371497 17.053439 -9.307628 9.278380 14.738708 -1.340722 -0.000001 -0.000002 0.000003 -0.754179 0.208572 -13.245159 0.029928 -0.759667 -17.420360 -0.102990 -1.044302 -20.385664 -0.000002 -0.000002 0.000000 2.446815 2.844507 -23.035247 -0.021151 -2.027664 -31.425192 0.012745 -2.399360 -34.994297 -0.000003 -0.000000 -0.000002 0.752462 4.505310 -30.750242 -0.981621 -1.227878 -35.970901 -1.037937 -1.358218 -39.134682 0.000000 -0.000001 0.000001 -1.632814 3.694675 -37.232755 -0.949719 -0.779218 -32.064572 -2.239019 -0.224795 -50.000263 0.000001 -0.000001 0.000000 -5.543629 24.107515 2.123104 0.000000 0.000000 0.000000 -13.173078 -20.156858 57.392324 15.493948 34.171010 -5.133784 12.981431 22.876428 12.755380 55.149570 18.649531 -29.698294 -0.442562 -14.180552 7.313152 21.666979 -29.244497 9.142369 0.000000 -0.000004 0.000002 5.673412 7.585004 36.844168 1.050425 3.824532 68.900264 0.499597 3.026034 62.196454 -0.000000 0.000002 0.000001 -0.125705 1.886105 45.000773 -1.169028 3.204653 68.417663 -0.936434 1.813613 41.107555 0.000000 -0.000000 0.000005 -5.312015 1.216658 58.508801 -0.745222 1.667558 48.011281 -0.816487 1.840595 53.666555 0.000002 -0.000005 0.000001 -7.756801 -9.376458 47.263994 -0.526059 1.541607 45.600525 -0.508178 0.803478 24.986615 -0.000000 -0.000001 -0.000000 -62.609148 41.811590 57.052645 36.177811 -14.629992 -4.142915 11.961007 6.167394 3.193466 0.298209 13.288795 -11.910744 0.000001 -0.000002 0.000001 -44.920539 -13.050856 -27.781448 42.128620 -4.802447 5.252826 -8.875986 -1.875214 8.426567 1.268644 3.735544 0.082953 -0.000000 -0.000003 0.000000 
29.811808 105.907272 4.268042 155.876788 -60.188706 162.645273 10.535181 -3.104090 1.465759 5.077497 -1.603200 -4.097638 0.000000 0.000000 0.000000 -4.749401 -3.642999 -2.662462 6.469084 14.668538 -1.949848 -12.456451 15.384859 -4.709117 0.000002 -0.000000 -0.000000 -1.822002 -14.611924 -4.119284 0.000000 0.000000 0.000000 -24.396500 -9.365104 -47.588011 -15.736298 -30.089934 -17.677867 3.879474 -10.256083 4.806051 20.213721 -4.650139 10.411633 3.371298 17.053570 -9.307677 9.278478 14.738653 -1.340693 0.000001 0.000001 -0.000004 -0.754153 0.208544 -13.245169 0.029636 -0.759762 -17.420355 -0.103041 -1.044337 -20.385664 0.000000 0.000002 0.000000 2.446771 2.844552 -23.035247 -0.021228 -2.027542 -31.425168 0.012910 -2.399241 -34.994358 -0.000002 -0.000002 -0.000003 0.752441 4.505230 -30.750219 -0.981474 -1.228060 -35.970918 -1.037764 -1.358447 -39.134696 0.000001 0.000001 -0.000001 -1.632804 3.694645 -37.232737 -0.949585 -0.779287 -32.064572 -2.239138 -0.224645 -50.000270 0.000002 -0.000001 -0.000000 -5.569919 24.018598 2.202752 0.000000 0.000000 0.000000 -12.836173 -20.262258 57.156433 16.241546 34.139615 -5.554873 12.609191 23.011151 12.781494 55.149570 18.649533 -29.698294 -0.442562 -14.180554 7.313156 21.666977 -29.244493 9.142363 -0.000001 0.000003 -0.000002 5.673409 7.584998 36.844171 1.050427 3.824535 68.900264 0.499594 3.026031 62.196447 0.000001 -0.000001 0.000001 -0.125702 1.886101 45.000773 -1.169026 3.204653 68.417663 -0.936431 1.813612 41.107552 0.000001 0.000001 0.000002 -5.312012 1.216654 58.508794 -0.745224 1.667559 48.011281 -0.816489 1.840593 53.666552 -0.000001 -0.000001 -0.000000 -7.756800 -9.376461 47.263997 -0.526057 1.541607 45.600525 -0.508180 0.803477 24.986621 0.000000 -0.000000 0.000001 -63.540328 41.344685 57.605488 36.091321 -16.033319 -3.888737 13.097572 5.446376 4.613595 1.086192 13.678898 -12.987553 -0.000001 -0.000001 -0.000001 -45.345803 -12.775131 -27.193867 42.612905 -4.511197 5.254503 -9.478002 -1.365846 7.902251 1.545056 3.776565 -0.003043 0.000000 0.000002 -0.000000 
